<svg xmlns="http://www.w3.org/2000/svg" width="900" height="152.5"><path d="M748.633 71.705C750.8 30.025 786.343-1.985 828.008.2c41.67 2.19 73.69 37.745 71.523 79.425-1.16 22.334-11.9 41.89-28.03 54.898v-69.97c0-11.124-8.922-28.55-21.794-31.56V146.79a74.678 74.678 0 0 1-14.497 3.64V94.31c0-11.118-8.925-28.545-21.796-31.553v87.725a75.065 75.065 0 0 1-14.497-3.555V119.99c0-11.12-8.93-28.55-21.798-31.556v46.406c-18.46-14.688-29.795-37.78-28.477-63.135m-93.346 58.27c14.57-14.574 21.818-32 21.818-52.454V3.79h-31.55v73.73c0 11.666-4.143 21.72-12.33 29.902-8.175 7.79-18.02 11.744-29.308 11.744-11.62 0-21.68-3.96-29.88-11.767-7.81-8.2-11.77-18.27-11.77-29.88V3.79H530.19v73.73c0 20.455 7.065 37.87 21.25 52.427 14.565 14.22 32.002 21.304 52.48 21.304 20.1 0 37.163-7.07 51.372-21.27zM411.644 3.745H379.56V151.21h32.085v-44.92l80.87 43.125c3.89 2.1 7.83 2.397 12.045.894 4.2-1.5 7.17-4.33 8.995-8.59 1.8-3.91 1.988-7.96.454-12.26-1.54-4.288-4.29-7.27-8.18-9.06l-79.86-42.93 79.86-42.93c3.94-1.82 6.67-4.66 8.17-8.52 1.517-4.26 1.385-8.47-.455-12.79-1.798-3.87-4.728-6.528-8.995-8.05-4.275-1.53-8.255-1.37-12.137.394l-80.776 43.08V3.744zm-53.42-.06h-32.087v147.567h32.085V3.69zm-344.93 76.96c8.776 8.437 19.356 12.65 31.916 12.65h57.417c3.29 0 6.036 1.645 8.218 4.18 2.66 2.304 4.175 5.263 4.175 8.754 0 3.54-1.554 6.54-4.283 8.85-2.27 2.23-4.994 3.54-8.11 3.54H16.685c-22.545 0-21.944 32.63 0 32.63h85.942c12.134 0 22.524-4.348 31.328-13.15 8.79-8.79 13.155-19.35 13.155-31.877 0-12.135-4.37-22.544-13.175-31.354-8.813-9.154-19.214-13.666-31.308-13.666H45.21c-7.1 0-12.935-5.117-12.935-12.397 0-8.256 4.674-12.934 12.935-12.934h80.9c19.696 0 19.04-32.086 0-32.086h-80.9c-12.48 0-23.05 4.54-31.85 13.67C4.556 26.267.19 36.677.19 48.81c0 12.505 4.346 23.05 13.106 31.83zm247.43-18.895H205.7c-12.54 0-23.102 4.196-31.872 12.608-8.784 8.79-13.15 19.347-13.15 31.87 0 12.134 4.366 22.545 13.17 31.353 8.798 9.14 19.37 13.67 31.85 13.67h99.507V48.81c0-12.476-4.326-23.048-13.15-31.87-8.803-8.804-19.194-13.15-31.333-13.15h-71.85c-21.943 0-22.545 32.627 0 32.627h71.85c3.115 0 5.845 1.314 8.11 3.54 2.73 2.32 4.283 5.313 4.283 8.858 0 3.49-1.51 6.45-4.17 8.755-2.183 2.533-4.93 4.178-8.223 4.178zM205.7 93.834h67.586v25.332H205.7c-8.264 0-12.936-4.682-12.936-12.94 0-7.275 5.835-12.392 12.935-12.392" fill="#c52120"/></svg>