<?xml version="1.0" encoding="utf-8"?>
<!-- Generator: Adobe Illustrator 20.0.0, SVG Export Plug-In . SVG Version: 6.00 Build 0)  -->
<svg version="1.1" id="Layer_1" xmlns="http://www.w3.org/2000/svg" xmlns:xlink="http://www.w3.org/1999/xlink" x="0px" y="0px"
	 viewBox="0 0 399.5 143.7" enable-background="new 0 0 399.5 143.7" xml:space="preserve">
<path fill="#C8C0C0" d="M12.5,272.6c0.1,0.5,0,0.8-0.5,0.9v-1C12.2,272.6,12.3,272.6,12.5,272.6z"/>
<path fill="#FF4800" d="M98.1,141.5c-3.2-1-3.8-3.6-3.7-6.2c0.1-2.6,0.9-5.1,1.7-7.6c2.8-8.8,6.6-17.2,11.1-25.3
	c6.6-12,14.5-23.1,23.2-33.7c9.8-11.9,20.5-23.1,32.1-33.3c10.7-9.4,22.2-17.6,35-24c5.2-2.6,10.7-4.8,16.4-6.1
	c1.9-0.4,3.9-0.8,5.9-1c0.3-0.1,0.5,0,0.7,0h0.4c0.2,0,0.5,0.1,0.7-0.1h3.1c0.3,0.2,0.6,0.1,0.9,0.1h0.5c0.3,0,0.5,0,0.8,0.1
	c6.2,0.7,11.4,3.4,15.7,7.8c0.7,0.7,1.3,1.5,1.7,2.5c0.4,1.3,0.1,2.2-1,3c-0.9,0.6-1.8,0.8-2.8,1c-2,0.3-4.1,0.6-6.1,1
	c-8.3,1.6-16.4,3.9-24.3,6.8c-12.3,4.5-24,10.5-34.7,18.4c-5.7,4.2-10.9,9-16.1,13.8C145.1,72.3,132,87,120.5,103
	c-7.1,10-13.6,20.4-18.7,31.5c-1,2.3-2.1,4.5-2.9,6.9C98.8,141.7,98.4,141.6,98.1,141.5z"/>
<path fill="#333333" d="M251.6,71.5c-0.8-6-5-10.1-11.1-10.4c-4.6-0.2-8.8,1-12.6,3.6c-2.2,1.6-4.1,3.5-5.7,5.8
	c-0.3-0.3,0-0.7-0.1-1v-0.1c0.3-2.4,0.6-4.8,0.8-7.1c-0.2-0.2-0.3-0.2-0.4-0.2h-9.4c-0.5,0-0.7,0.2-0.7,0.7l-0.9,6.3
	c-0.7,4.4-1.6,8.7-2.4,13l-4.6,24.4c-0.3,1.4-0.5,2.8-0.7,4.2c0.1,0,0.2,0.1,0.3,0.1h10.8c0.5,0,0.5-0.3,0.6-0.7l1.2-6.3
	c1-5.6,2.1-11.1,3.1-16.7c0.8-4,2.4-7.8,4.9-11.1c1.4-1.8,3-3.4,5.1-4.5c1.4-0.7,2.8-1.2,4.4-1.1c3.1,0.1,4.9,1.6,5.5,4.6
	c0.1,0.6,0.1,1.3,0.2,1.9c0.1,2-0.2,4-0.5,5.9c-1.5,8.2-3.1,16.5-4.7,24.7c-0.2,1-0.5,2-0.5,3.1h11.1c0.4,0,0.6-0.2,0.7-0.6
	c0-0.5,0.2-1,0.3-1.5c1.8-9.4,3.6-18.9,5.3-28.3C251.9,77.4,252.1,74.4,251.6,71.5L251.6,71.5z M380.7,61.1c-1.7,0-3.4-0.1-5.1,0.3
	c-3.1,0.7-5.6,2.4-7.8,4.7c-1.7,1.7-3,3.8-4.2,5.9c-0.3-0.1-0.1-0.4-0.3-0.6v-0.1c0-0.3,0-0.7,0.1-1.1c0.3-2.4,0.5-4.7,0.7-7.1
	c0.1-0.9,0.1-0.9-0.8-0.9h-7.8c-1.4,0-1.4,0-1.6,1.5c-0.7,6.5-1.5,13-2.8,19.5c-1.4,7.3-2.8,14.5-4.2,21.7c-0.3,2-0.7,3.9-1.1,5.9
	c0.1,0,0.3,0.1,0.3,0.1h10.6c0.6,0,0.7-0.3,0.8-0.7c0.9-4.9,1.8-9.8,2.8-14.6c0.6-2.9,1-5.9,1.9-8.7c1.1-3.5,2.5-6.8,4.9-9.6
	c2.9-3.4,6.5-5,11-4.6c0.6,0,0.7-0.2,0.8-0.7c0.7-3.4,1.4-6.7,2.1-10.1C381.2,61.3,381.1,61.2,380.7,61.1L380.7,61.1z"/>
<path fill="#FF4800" d="M123,50.1c0,5.8-1.1,11.9-3.1,17.9c-0.3,1-0.9,2.1-1.6,2.9c-1.1,1.4-2.3,1.4-3.4,0c-0.8-1-1.4-2-1.7-3.2
	c-1.5-6.7-3-13.4-4.4-20.2c-1.3-6.3-2.5-12.5-3.6-18.8c-0.7-4.4-1.5-8.7-1.8-13.2c0-0.4-0.2-0.9-0.2-1.4c0-1.4,0.7-2,2-1.6
	c1.3,0.3,2.5,0.9,3.5,1.9c3.6,3.6,6.5,7.7,8.8,12.2C121.2,33.9,123,41.5,123,50.1z"/>
<path fill="#333333" d="M55.1,57.8c-0.8-5.6-4.1-9.6-9.2-12.1c-3.7-1.8-7.7-2.5-11.9-2.7c-3.2-0.2-6.3,0-9.5,0.2
	c-2.7,0.2-5.4,0.5-8.1,1.1c-0.5,0.1-0.8,0.3-0.9,0.8l-3.1,16.7C11,69,9.6,76.1,8.3,83.3l-4,21.7c-0.3,1.7-0.5,3.4-1,5
	c-0.2,0.1-0.1,0.3-0.3,0.3v0.4h10.7c0.8,0,0.9,0,1-0.8c0.9-4.9,1.8-9.7,2.8-14.5c0.6-3.1,1.3-6.3,1.8-9.4c0.1-0.6,0.3-0.7,0.8-0.6
	c0.7,0.1,1.5,0.2,2.3,0.3c5.6,0.5,11.1-0.1,16.4-1.9c5.1-1.7,9.4-4.6,12.5-9.1C54.8,69.5,56.1,63.9,55.1,57.8z M43.2,65.7
	c-1.4,4.9-4.8,7.9-9.4,9.6c-2.1,0.8-4.4,1-7,1c-1.4,0-3.1-0.2-4.8-0.5c-0.4-0.1-0.6-0.2-0.5-0.7c1.4-7.2,2.8-14.4,4.1-21.6
	c0.1-0.5,0.3-0.7,0.7-0.8c3.6-0.5,7.3-0.8,10.8,0.2c2.7,0.7,4.8,2.2,5.9,4.8C43.9,60.3,43.9,63.1,43.2,65.7z M200.8,75.4
	c-1.7-6.4-5.5-11-11.9-13.2c-3.4-1.2-6.8-1.4-10.4-1c-6.4,0.7-11.9,3.4-16.4,8.1c-5.9,6.2-8.5,13.8-8.7,22.3c0,1.7,0.1,3.5,0.5,5.2
	c1.6,7,5.6,11.9,12.6,14.1c3.7,1.2,7.4,1.3,11.2,0.7c7.3-1.2,13-4.9,17.4-10.7c3.4-4.5,5.2-9.6,6-15.1
	C201.6,82.3,201.7,78.8,200.8,75.4L200.8,75.4z M189.5,82.6c-0.3,4.8-1.7,9.4-4.2,13.5c-1,1.7-2.3,3.2-3.8,4.4
	c-2,1.6-4.2,2.5-6.9,2.4c-3.5-0.2-5.9-1.7-7.6-4.8c-1.1-2.1-1.5-4.4-1.4-7.3c0.1-4.2,1.3-8.8,3.6-13c1.3-2.3,2.9-4.3,5.2-5.9
	s4.9-2.2,7.7-1.7s4.7,2.1,6,4.5S189.7,79.8,189.5,82.6z M314.3,90.9c3.5,0,6.9,0,10.3-0.4c3.4-0.3,6.8-1,10-2.1
	c1.5-0.5,3-1.2,4.3-2.1c4.7-3,6.7-7.3,6.3-12.7c-0.4-5.5-3.4-9.3-8.5-11.3c-1.7-0.7-3.6-1.1-5.5-1.2c-6.4-0.3-12.2,1.4-17.3,5.5
	c-5.5,4.4-8.9,10.1-10.8,16.8c-1.4,5.1-1.6,10.4-0.2,15.5c1.5,5.6,5,9.5,10.5,11.6c2.2,0.8,4.5,1.2,6.8,1.4c3.5,0.1,7-0.1,10.4-0.9
	c2.7-0.6,5.4-1.4,7.9-2.6c0.3-0.2,0.7-0.3,0.6-0.9c-0.3-2.6-0.7-5.2-1-7.8c-0.4,0-0.6,0.1-0.9,0.2c-1.8,0.9-3.7,1.6-5.6,2
	c-3.4,0.8-6.7,1.2-10.1,0.5c-3.8-0.7-6.5-2.8-7.7-6.6c-0.4-1.3-0.6-2.7-0.6-4C313.3,90.9,313.3,90.9,314.3,90.9L314.3,90.9z
	 M320.5,72.5c1.6-1.3,3.3-2.1,5.3-2.5c1.6-0.3,3.1-0.3,4.7,0.1c1.8,0.5,3.2,1.6,3.6,3.5c0.4,2-0.1,3.8-1.6,5.1c-1.1,1-2.5,1.6-4,2.1
	c-2.6,0.8-5.3,1-8,1.2c-1.7,0.1-3.5,0.1-5.2,0.1c-0.2,0-0.4,0-0.7-0.2C315.6,78.2,317.5,75,320.5,72.5L320.5,72.5z M269.2,90.9
	c4.5,0,8.9-0.1,13.3-0.8c3.2-0.5,6.4-1.3,9.3-2.8c5.1-2.5,8.1-6.4,8.1-12.3c0-4.3-1.4-8-4.9-10.7c-2.7-2.1-5.9-3-9.2-3.2
	c-6.3-0.4-11.9,1.3-16.9,5.1c-5.4,4.1-8.9,9.6-10.8,16.1c-1.6,5.3-2,10.8-0.6,16.2c1.3,5,4.1,8.8,8.7,11.2c2.7,1.4,5.5,2,8.5,2.1
	c3.2,0.2,6.3,0,9.5-0.7c3.1-0.6,6-1.4,8.9-2.8c0.8-0.4,0.8-0.4,0.7-1.3c-0.1-1.1-0.3-2.3-0.4-3.4c-0.2-1.4-0.4-2.7-0.6-4.2
	c-0.2,0.1-0.3,0.1-0.5,0.2c-3.1,1.5-6.3,2.4-9.7,2.8c-2.4,0.2-4.9,0.3-7.3-0.3c-3.2-0.9-5.6-2.9-6.6-6.1c-0.4-1.3-0.6-2.7-0.7-4
	C268,90.6,268.1,90.9,269.2,90.9z M269.9,80.2c1-2.7,2.4-5.1,4.5-7c2.8-2.6,5.9-3.8,9.8-3.4c0.5,0,1,0.2,1.5,0.3
	c4.2,1.4,4,6.1,2,8.2c-1,1-2.3,1.7-3.7,2.2c-1.8,0.6-3.6,1-5.5,1.2c-3,0.3-5.9,0.4-9,0.3C269.5,81.4,269.7,80.8,269.9,80.2
	L269.9,80.2z"/>
<path fill="#343434" d="M389.7,61.3c-3.2,0.8-5,4.2-4,7.3c0.8,2.5,3.3,4.2,5.9,4s4.9-2.2,5.2-4.8v-2.1
	C396.1,62.4,392.9,60.4,389.7,61.3z M391.2,71.7c-2.6,0-4.9-2.2-4.9-4.9c0-2.6,2.1-4.8,4.8-4.9c2.7,0,4.9,2.1,4.9,4.8
	C396,69.5,393.9,71.7,391.2,71.7z"/>
<path fill="#333333" d="M98.5,62.9c-2.1-0.6-4.3-1-6.6-1.4c-4.8-0.7-9.5-0.8-14.3,0c-10.3,1.9-18,7.4-23.1,16.6
	c-2.8,5-4.1,10.5-4.3,16.2c-0.1,3,0.3,5.9,1.4,8.7c2.1,5,5.8,8,11.2,8.7c4.5,0.5,8.7-0.7,12.3-3.4c2.5-1.9,4.5-4.3,6.1-7L82,100h0.2
	l-0.3,3c-0.3,2.3-0.4,4.6-0.5,7c0,0.6,0.2,0.7,0.7,0.7h9.4c0.6,0,0.7-0.2,0.7-0.7c-0.1-3.1,0.1-6.2,0.3-9.2c0.4-4.4,1-8.7,1.8-13.1
	c1.6-7.9,3.1-15.8,4.8-23.8C99.4,63.2,99.5,63.2,98.5,62.9z M86.2,71.3c-0.3,1.7-0.7,3.5-1,5.2c-0.7,3.4-1.2,6.8-2.1,10.1
	c-1,3.5-2.3,6.9-4.5,9.9c-1.3,1.8-2.8,3.4-4.6,4.5c-1.6,1-3.3,1.5-5.2,1.4c-2.4-0.2-4.2-1.4-5.2-3.6c-0.6-1.3-1-2.7-1-4.2
	c-0.3-8.6,2.8-15.8,9.6-21.3c3-2.4,6.3-3.4,10-3.3c1.1,0,2.3,0.1,3.5,0.3C86.3,70.5,86.3,70.6,86.2,71.3z"/>
<path fill="#373737" d="M392.3,67L392.3,67l0.1-0.2c0.7-0.5,0.9-1.2,0.7-2c-0.3-0.8-0.9-1.1-1.7-1.1h-1.6c-0.4,0-0.6,0.2-0.6,0.6
	v5.5c0,0.3,0.2,0.4,0.5,0.4s0.4-0.1,0.4-0.4v-1.5c0-0.9,0.2-1,1.1-0.9c0.5,0.1,0.7,0.5,0.9,0.9l0.3,1.2c0.1,0.5,0.4,0.7,1,0.5
	C393.1,69,393.1,67.8,392.3,67L392.3,67z M391.5,66.5H391c-0.8,0-0.9,0-0.9-0.8v-0.3c0-1.1,0.4-1.4,1.4-1c0.5,0.2,0.8,0.6,0.8,1
	C392.4,65.9,392,66.3,391.5,66.5z"/>
</svg>
